<svg xmlns="http://www.w3.org/2000/svg" width="1920" height="1080" viewBox="0 0 1920 1080">
  <defs>
    <linearGradient id="bg" x1="0" y1="0" x2="1" y2="1">
      <stop offset="0%" stop-color="#f6f9fc"/>
      <stop offset="100%" stop-color="#d9e7f5"/>
    </linearGradient>
    <linearGradient id="wave" x1="0" y1="0" x2="1" y2="0">
      <stop offset="0%" stop-color="#0e314e" stop-opacity="0.10"/>
      <stop offset="100%" stop-color="#0e314e" stop-opacity="0"/>
    </linearGradient>
  </defs>
  <rect width="1920" height="1080" fill="url(#bg)"/>

  <g opacity="0.28">
    <path d="M0,830 C300,740 620,920 980,860 C1340,800 1620,600 1920,660 L1920,1080 L0,1080 Z" fill="url(#wave)"/>
    <path d="M0,710 C320,610 650,820 980,740 C1310,660 1600,480 1920,560" fill="none" stroke="#0e314e" stroke-opacity="0.16" stroke-width="4"/>
    <path d="M0,620 C360,560 720,720 1100,670 C1480,620 1700,470 1920,470" fill="none" stroke="#0e314e" stroke-opacity="0.14" stroke-width="3"/>
    <path d="M0,540 C380,500 760,640 1140,610 C1520,580 1720,460 1920,430" fill="none" stroke="#0e314e" stroke-opacity="0.10" stroke-width="2.5"/>
  </g>
</svg>
